<?xml version="1.0" encoding="UTF-8" standalone="no"?>
<svg
   xmlns:dc="http://purl.org/dc/elements/1.1/"
   xmlns:cc="http://creativecommons.org/ns#"
   xmlns:rdf="http://www.w3.org/1999/02/22-rdf-syntax-ns#"
   xmlns:svg="http://www.w3.org/2000/svg"
   xmlns="http://www.w3.org/2000/svg"
   viewBox="101.176 279.953 797.649 106.751"
   height="106.751"
   width="797.649"
   xml:space="preserve"
   id="svg2"
   version="1.1"><metadata
     id="metadata8"><rdf:RDF><cc:Work
         rdf:about=""><dc:format>image/svg+xml</dc:format><dc:type
           rdf:resource="http://purl.org/dc/dcmitype/StillImage" /></cc:Work></rdf:RDF></metadata><defs
     id="defs6"><clipPath
       id="clipPath18"
       clipPathUnits="userSpaceOnUse"><path
         id="path16"
         d="M 0,500 H 750 V 0 H 0 Z" /></clipPath></defs><g
     transform="matrix(1.3333333,0,0,-1.3333333,0,666.66667)"
     id="g10"><g
       id="g12"><g
         clip-path="url(#clipPath18)"
         id="g14"><g
           transform="translate(193.0017,212.3803)"
           id="g20"><path
             id="path22"
             style="fill:#ff0000;fill-opacity:1;fill-rule:nonzero;stroke:none"
             d="m 0,0 22.058,46.735 c 8.411,17.06 31.184,17.298 39.674,0 L 83.87,0 H 70.619 l -19.52,41.657 c -4.523,8.252 -14.044,8.252 -18.329,0 L 13.013,0 Z" /></g><g
           transform="translate(90.39,271.087)"
           id="g24"><path
             id="path26"
             style="fill:#ff0000;fill-opacity:1;fill-rule:nonzero;stroke:none"
             d="m 0,0 19.757,-41.657 c 4.285,-8.252 13.807,-8.252 18.33,0 L 57.606,0 H 70.857 L 48.719,-46.735 c -8.49,-17.298 -31.263,-17.06 -39.673,0 L -13.013,0 Z" /></g><path
           id="path28"
           style="fill:#ff0000;fill-opacity:1;fill-rule:nonzero;stroke:none"
           d="m 183.07,211.993 h -11.823 v 59.589 h 11.823 z" /><g
           transform="translate(183.0696,282.6211)"
           id="g30"><path
             id="path32"
             style="fill:#ff0000;fill-opacity:1;fill-rule:nonzero;stroke:none"
             d="m 0,0 h 11.823 v -10.96 h 0.198 c 2.572,8.037 10.636,12.347 21.65,12.347 16.338,0 24.204,-8.769 24.204,-25.882 v -35.757 h -11.823 v 34.937 c 0,11.203 -4.522,16.746 -14.795,16.746 -11.709,0 -18.524,-7.579 -18.524,-20.505 v -31.178 h -11.823 z" /></g><g
           transform="translate(267.5886,211.9932)"
           id="g34"><path
             id="path36"
             style="fill:#ff0000;fill-opacity:1;fill-rule:nonzero;stroke:none"
             d="M 0,0 H -11.823 V 59.589 H 0 Z" /></g><g
           transform="translate(322.1946,250.5874)"
           id="g38"><path
             id="path40"
             style="fill:#ff0000;fill-opacity:1;fill-rule:nonzero;stroke:none"
             d="m 0,0 c -1.909,0.613 -4.31,0.859 -7.375,0.859 -7.874,0 -14.614,-4.923 -14.614,-16.749 V -38.594 H -33.81 v 59.589 h 11.821 v -9.795 h 0.199 c 2.859,6.923 9.323,10.955 16.994,10.955 2.247,0 4.077,-0.206 5.793,-0.655 z" /></g><g
           transform="translate(335.0667,241.7725)"
           id="g42"><path
             id="path44"
             style="fill:#ff0000;fill-opacity:1;fill-rule:nonzero;stroke:none"
             d="m 0,0 c 0,-14.13 9.337,-21.723 20.203,-21.723 9.26,0 15.182,3.257 18.723,10.759 h 12.213 c -3.545,-13.386 -15.281,-21.715 -30.725,-21.715 -18.887,0 -32.444,13.519 -32.444,33.005 0,20.097 14.106,34.465 32.556,34.465 20.144,0 32.221,-15.561 31.851,-35.353 h -52.377 z m 39.907,9.405 c -0.266,8.858 -7.501,15.944 -19.704,15.944 -11.76,0 -19.812,-7.52 -20.105,-15.944 z" /></g><g
           transform="translate(459.1252,250.5874)"
           id="g46"><path
             id="path48"
             style="fill:#ff0000;fill-opacity:1;fill-rule:nonzero;stroke:none"
             d="m 0,0 c -1.909,0.613 -4.31,0.859 -7.375,0.859 -7.874,0 -14.614,-4.923 -14.614,-16.749 V -38.594 H -33.81 v 59.589 h 11.821 v -9.795 h 0.199 c 2.859,6.923 9.323,10.955 16.994,10.955 2.247,0 4.077,-0.206 5.793,-0.655 z" /></g><g
           transform="translate(468.1907,241.7725)"
           id="g50"><path
             id="path52"
             style="fill:#ff0000;fill-opacity:1;fill-rule:nonzero;stroke:none"
             d="m 0,0 c 0,-14.13 9.337,-21.723 20.203,-21.723 9.26,0 15.182,3.257 18.723,10.759 h 12.213 c -3.545,-13.386 -15.281,-21.715 -30.725,-21.715 -18.887,0 -32.444,13.519 -32.444,33.005 0,20.097 14.106,34.465 32.556,34.465 20.144,0 32.221,-15.561 31.851,-35.353 h -52.377 z m 39.907,9.405 c -0.266,8.858 -7.501,15.944 -19.704,15.944 -11.76,0 -19.812,-7.52 -20.105,-15.944 z" /></g><g
           transform="translate(569.0881,241.7725)"
           id="g54"><path
             id="path56"
             style="fill:#ff0000;fill-opacity:1;fill-rule:nonzero;stroke:none"
             d="m 0,0 c 0,-14.13 9.337,-21.723 20.203,-21.723 9.26,0 15.182,3.257 18.723,10.759 h 12.213 c -3.545,-13.386 -15.281,-21.715 -30.725,-21.715 -18.887,0 -32.444,13.519 -32.444,33.005 0,20.097 14.106,34.465 32.556,34.465 20.144,0 32.221,-15.561 31.851,-35.353 h -52.377 z m 39.907,9.405 c -0.266,8.858 -7.501,15.944 -19.704,15.944 -11.76,0 -19.812,-7.52 -20.105,-15.944 z" /></g><g
           transform="translate(629.2092,222.9531)"
           id="g58"><path
             id="path60"
             style="fill:#ff0000;fill-opacity:1;fill-rule:nonzero;stroke:none"
             d="m 0,0 v -10.96 h 0.196 c 2.588,8.037 10.637,12.347 21.652,12.347 16.338,0 24.204,-8.769 24.204,-25.882 v -35.757 h -11.821 v 34.937 c 0,11.203 -4.524,16.746 -14.797,16.746 -11.708,0 -18.524,-7.579 -18.524,-20.505 v -31.178 h -11.821 v 59.589 H 0 Z" /></g><g
           transform="translate(691.9856,211.9932)"
           id="g62"><path
             id="path64"
             style="fill:#ff0000;fill-opacity:1;fill-rule:nonzero;stroke:none"
             d="m 0,0 h -11.821 v 59.589 h 11.821 z" /></g><g
           transform="translate(757.6321,251.249)"
           id="g66"><path
             id="path68"
             style="fill:#ff0000;fill-opacity:1;fill-rule:nonzero;stroke:none"
             d="m 0,0 c -1.639,9.094 -8.611,14.625 -18.979,14.625 -10.841,0 -20.354,-7.529 -20.354,-25.123 0,-14.799 6.816,-23.705 20.354,-23.705 10.012,0 17.299,5.285 19.364,15.278 h 11.835 c -2.725,-16.398 -15.223,-26.253 -31.199,-26.253 -20.206,0 -32.918,13.934 -32.918,34.68 0,20.829 13.608,35.67 33.002,35.67 15.661,0 28.001,-8.858 30.664,-25.172 z" /></g></g></g></g></svg>
