<?xml version="1.0" encoding="UTF-8" standalone="no"?>
<svg
   viewBox="0 0 793.66107 102.75266"
   height="102.75266"
   width="793.66107"
   xml:space="preserve"
   id="svg2"
   version="1.1"
   sodipodi:docname="VIA-LOGOS-Final.svg"
   xmlns:inkscape="http://www.inkscape.org/namespaces/inkscape"
   xmlns:sodipodi="http://sodipodi.sourceforge.net/DTD/sodipodi-0.dtd"
   xmlns="http://www.w3.org/2000/svg"
   xmlns:svg="http://www.w3.org/2000/svg"
   xmlns:rdf="http://www.w3.org/1999/02/22-rdf-syntax-ns#"
   xmlns:cc="http://creativecommons.org/ns#"
   xmlns:dc="http://purl.org/dc/elements/1.1/"><sodipodi:namedview
     id="namedview1"
     pagecolor="#ffffff"
     bordercolor="#000000"
     borderopacity="0.25"
     inkscape:showpageshadow="2"
     inkscape:pageopacity="0.0"
     inkscape:pagecheckerboard="0"
     inkscape:deskcolor="#d1d1d1"><inkscape:page
       x="0"
       y="0"
       width="793.66107"
       height="102.75266"
       id="page2"
       margin="0"
       bleed="0" /></sodipodi:namedview><metadata
     id="metadata8"><rdf:RDF><cc:Work
         rdf:about=""><dc:format>image/svg+xml</dc:format><dc:type
           rdf:resource="http://purl.org/dc/dcmitype/StillImage" /></cc:Work></rdf:RDF></metadata><defs
     id="defs6"><clipPath
       id="clipPath18"
       clipPathUnits="userSpaceOnUse"><path
         id="path16"
         d="M 0,500 H 750 V 0 H 0 Z" /></clipPath></defs><g
     transform="matrix(1.3333333,0,0,-1.3333333,-103.16933,384.70945)"
     id="g10"
     inkscape:export-filename="g10.png"
     inkscape:export-xdpi="96"
     inkscape:export-ydpi="96"><g
       id="g12"><g
         clip-path="url(#clipPath18)"
         id="g14"><g
           transform="translate(193.0017,212.3803)"
           id="g20"><path
             id="path22"
             style="fill:#ff0000;fill-opacity:1;fill-rule:nonzero;stroke:none"
             d="m 0,0 22.058,46.735 c 8.411,17.06 31.184,17.298 39.674,0 L 83.87,0 H 70.619 l -19.52,41.657 c -4.523,8.252 -14.044,8.252 -18.329,0 L 13.013,0 Z" /></g><g
           transform="translate(90.39,271.087)"
           id="g24"><path
             id="path26"
             style="fill:#ff0000;fill-opacity:1;fill-rule:nonzero;stroke:none"
             d="m 0,0 19.757,-41.657 c 4.285,-8.252 13.807,-8.252 18.33,0 L 57.606,0 H 70.857 L 48.719,-46.735 c -8.49,-17.298 -31.263,-17.06 -39.673,0 L -13.013,0 Z" /></g><path
           id="path28"
           style="fill:#ff0000;fill-opacity:1;fill-rule:nonzero;stroke:none"
           d="m 183.07,211.993 h -11.823 v 59.589 h 11.823 z" /><g
           transform="translate(183.0696,282.6211)"
           id="g30"><path
             id="path32"
             style="fill:#4d4d4d;fill-opacity:1;fill-rule:nonzero;stroke:none"
             d="m 0,0 c 0,-3.265 -2.647,-5.911 -5.911,-5.911 -3.265,0 -5.912,2.646 -5.912,5.911 0,3.265 2.647,5.911 5.912,5.911 C -2.647,5.911 0,3.265 0,0" /></g><g
           transform="translate(517.3104,249.8467)"
           id="g34"><path
             id="path36"
             style="fill:#4d4d4d;fill-opacity:1;fill-rule:nonzero;stroke:none"
             d="m 0,0 h -12.696 c -3.253,7.062 -10.236,11.267 -17.615,11.267 -10.87,0 -19.281,-8.808 -19.281,-18.726 0,-5.316 2.142,-10.077 5.475,-13.489 3.412,-3.571 8.49,-5.475 13.806,-5.475 5.396,0 10.712,1.349 14.283,4.84 3.571,3.492 4.919,6.428 -1.429,6.507 l -15.948,0.238 0.158,11.744 15.95,-0.239 C 0.079,-3.491 -0.873,-17.536 -0.873,-17.615 L -1.032,-37.77 h -11.981 v 4.682 c -4.919,-3.332 -10.871,-5.237 -17.298,-5.237 -8.648,0 -16.425,3.412 -21.9,8.887 -5.792,5.713 -9.362,13.33 -9.362,21.979 0,17.139 15.155,30.549 31.262,30.549 C -16.028,23.09 -3.491,13.012 0,0" /></g><g
           transform="translate(322.8033,271.0719)"
           id="g38"><path
             id="path40"
             style="fill:#4d4d4d;fill-opacity:1;fill-rule:nonzero;stroke:none"
             d="m 0,0 h 11.743 0.08 v -41.657 c 0,-3.332 2.618,-6.109 5.951,-6.109 H 50.782 V -59.589 H 17.774 C 6.189,-59.589 0.397,-52.527 0,-41.657 Z" /></g><g
           transform="translate(395.2609,242.3487)"
           id="g42"><path
             id="path44"
             style="fill:#4d4d4d;fill-opacity:1;fill-rule:nonzero;stroke:none"
             d="m 0,0 c 0,-11.188 9.522,-18.964 19.44,-18.964 10.712,0 19.361,8.649 19.361,18.964 0,10.87 -9.76,18.726 -19.361,18.726 C 8.887,18.726 0,10.156 0,0 m 50.544,0 c 0,-17.377 -14.679,-30.866 -31.104,-30.866 -17.456,0 -31.183,14.282 -31.183,30.866 0,17.298 14.917,30.549 31.183,30.549 C 36.5,30.549 50.544,16.266 50.544,0" /></g><g
           transform="translate(652.9224,259.3293)"
           id="g46"><path
             id="path48"
             style="fill:#4d4d4d;fill-opacity:1;fill-rule:nonzero;stroke:none"
             d="m 0,0 c -13.172,0 -22.932,-0.079 -36.024,-0.079 -7.696,0 -7.696,-11.823 0,-11.823 h 21.9 c 23.248,0 23.248,-35.865 0,-35.865 -13.172,0 -22.455,-0.08 -35.786,-0.08 v 11.823 c 13.331,0 22.535,0.08 35.786,0.08 7.776,0 7.776,11.981 0,11.981 h -21.9 c -23.249,0 -23.249,35.706 0,35.706 H 0 Z" /></g><g
           transform="translate(672.6228,218.2917)"
           id="g50"><path
             id="path52"
             style="fill:#ff0000;fill-opacity:1;fill-rule:nonzero;stroke:none"
             d="m 0,0 c 0,-3.265 -2.647,-5.911 -5.911,-5.911 -3.265,0 -5.912,2.646 -5.912,5.911 0,3.265 2.647,5.911 5.912,5.911 C -2.647,5.911 0,3.265 0,0" /></g><g
           transform="translate(542.7482,241.405)"
           id="g54"><path
             id="path56"
             style="fill:#ff0000;fill-opacity:1;fill-rule:evenodd;stroke:none"
             d="M 0,0 C 0,6.869 4.429,12.703 10.588,14.805 V 29.492 C -3.53,27.091 -14.279,14.8 -14.279,0 c 0,-16.522 13.395,-29.916 29.918,-29.916 14.801,0 27.09,10.748 29.492,24.865 H 30.443 C 28.343,-11.209 22.507,-15.639 15.639,-15.639 7.001,-15.639 0,-8.637 0,0" /></g><g
           transform="translate(558.387,271.3213)"
           id="g58"><path
             id="path60"
             style="fill:#ff0000;fill-opacity:1;fill-rule:evenodd;stroke:none"
             d="M 0,0 V -14.279 H 15.638 V -29.916 H 29.916 V -14.279 0 H 15.638 Z" /></g></g></g></g></svg>
